<svg width="7" height="6" viewBox="0 0 7 6" fill="none" xmlns="http://www.w3.org/2000/svg">
<g id="person_24px">
<path id="icon/social/person_24px" fill-rule="evenodd" clip-rule="evenodd" d="M3.67303 0.994141C3.14182 0.994141 2.71156 1.43923 2.71156 1.98876C2.71156 2.53829 3.14182 2.98338 3.67303 2.98338C4.20423 2.98338 4.63449 2.53829 4.63449 1.98876C4.63449 1.43923 4.20423 0.994141 3.67303 0.994141ZM4.15373 1.98879C4.15373 1.71527 3.9374 1.49148 3.673 1.49148C3.40859 1.49148 3.19226 1.71527 3.19226 1.98879C3.19226 2.26231 3.40859 2.4861 3.673 2.4861C3.9374 2.4861 4.15373 2.26231 4.15373 1.98879ZM5.1152 4.4753C5.06712 4.29876 4.32199 3.97799 3.673 3.97799C3.02641 3.97799 2.28609 4.29627 2.2308 4.4753H5.1152ZM1.7501 4.4753C1.7501 3.81388 3.03125 3.48068 3.67303 3.48068C4.31481 3.48068 5.59596 3.81388 5.59596 4.4753V4.97261H1.7501V4.4753Z" fill="black" fill-opacity="0.44"/>
</g>
</svg>
